<svg xmlns="http://www.w3.org/2000/svg" viewBox="0 0 24 24" fill="none">
  <path stroke="#fff" d="M5.8975 5h3.7187a.333.333 0 0 1 .332.3066 10.02 10.02 0 0 0 1.1963 4.0205.333.333 0 0 1-.0986.4307l-1.0322.7373-.3662.2617.2226.3916a9.3 9.3 0 0 0 3.4815 3.4815l.3916.2226.2617-.3662.7373-1.0322a.333.333 0 0 1 .4307-.0986 10.02 10.02 0 0 0 4.0205 1.1963.333.333 0 0 1 .3066.332v3.7187a.334.334 0 0 1-.2988.3321h-.001A12.6 12.6 0 0 1 17.917 19C11.0595 19 5.5 13.4405 5.5 6.583c0-.431.0218-.8597.0654-1.2842A.334.334 0 0 1 5.8974 5Z"/>
</svg>
