<svg xmlns="http://www.w3.org/2000/svg" width="18" height="18" fill="none">
  <path fill="#000" d="M13.9979 8.1302a.3946.3946 0 0 1-.3938.3938h-1.0969v.7031h1.0969a.3937.3937 0 0 1 .3938.3938c0 .215-.1757.393-.3938.393h-1.4913c-.2156 0-.3919-.178-.3919-.393v-2.982a.395.395 0 0 1 .3938-.3937h1.4913c.2162 0 .3919.1781.3919.3938a.393.393 0 0 1-.3938.3937h-1.0969v.7031h1.0969a.3947.3947 0 0 1 .3938.3944m-3.0732 1.8631a.4.4 0 0 1-.1244.0194c-.1318 0-.2443-.0562-.3187-.1563l-1.5269-2.073v1.8375c0 .215-.1744.393-.3943.393-.2163 0-.3913-.178-.3913-.393v-2.982a.392.392 0 0 1 .2687-.3718.36.36 0 0 1 .1213-.0206c.1219 0 .2344.065.3094.1587l1.5387 2.0813V6.639a.395.395 0 0 1 .3938-.3938c.2156 0 .3937.1781.3937.3938v2.9819a.393.393 0 0 1-.27.3724m-3.7125.0206c-.2156 0-.3918-.178-.3918-.393v-2.982a.395.395 0 0 1 .3937-.3937c.2162 0 .3925.1781.3925.3938v2.9819c0 .215-.1763.393-.3944.393m-1.1469 0H4.5741c-.2156 0-.3937-.178-.3937-.393v-2.982c0-.2156.178-.3937.3937-.3937a.395.395 0 0 1 .3938.3938v2.588h1.0974a.3936.3936 0 0 1 .3932.3938c0 .215-.1763.393-.3932.393m2.9357-8.085c-4.1344 0-7.5 2.732-7.5 6.0888 0 3.0069 2.6687 5.5263 6.2719 6.005.2443.0513.5768.1612.6612.3688.075.1881.0494.4787.0237.675l-.1025.6375c-.0281.1881-.15.7412.6557.4031.8068-.3369 4.3224-2.5487 5.8974-4.3594 1.0776-1.1806 1.5926-2.39 1.5926-3.73 0-3.3569-3.3656-6.0887-7.5-6.0887"/>
</svg>
